<svg width="71" height="70" viewBox="0 0 71 70" fill="none" xmlns="http://www.w3.org/2000/svg">
<rect x="0.89502" y="35.2719" width="48.9837" height="48.9837" rx="9" transform="rotate(-45 0.89502 35.2719)" fill="#96C547"/>
<path d="M35.5317 25.2083C35.8653 25.2083 36.1853 25.3408 36.4212 25.5767C36.6571 25.8127 36.7897 26.1326 36.7897 26.4662V34.0139H44.3373C44.671 34.0139 44.9909 34.1465 45.2269 34.3824C45.4628 34.6183 45.5953 34.9382 45.5953 35.2719C45.5953 35.6055 45.4628 35.9255 45.2269 36.1614C44.9909 36.3973 44.671 36.5298 44.3373 36.5298H36.7897V44.0775C36.7897 44.4111 36.6571 44.7311 36.4212 44.967C36.1853 45.2029 35.8653 45.3355 35.5317 45.3355C35.1981 45.3355 34.8781 45.2029 34.6422 44.967C34.4063 44.7311 34.2738 44.4111 34.2738 44.0775V36.5298H26.7261C26.3925 36.5298 26.0725 36.3973 25.8366 36.1614C25.6007 35.9255 25.4681 35.6055 25.4681 35.2719C25.4681 34.9382 25.6007 34.6183 25.8366 34.3824C26.0725 34.1465 26.3925 34.0139 26.7261 34.0139H34.2738V26.4662C34.2738 26.1326 34.4063 25.8127 34.6422 25.5767C34.8781 25.3408 35.1981 25.2083 35.5317 25.2083Z" fill="white"/>
</svg>
