<svg width="98" height="95" viewBox="0 0 98 95" fill="none" xmlns="http://www.w3.org/2000/svg">
<path d="M86.432 0.411255H5.09357C2.45151 0.411255 0.30896 2.55333 0.30896 5.19587V26.9678C0.30896 29.6103 2.45151 31.7524 5.09357 31.7524H6.88063V77.9827C6.88063 80.6253 9.0227 82.7674 11.6652 82.7674H79.8584C82.501 82.7674 84.643 80.6253 84.643 77.9827V31.7519H86.4315C89.0736 31.7519 91.2161 29.6098 91.2161 26.9673V5.19587C91.2166 2.55333 89.074 0.411255 86.432 0.411255ZM55.8272 43.1197H35.6974C33.5869 43.1197 31.8697 41.4025 31.8697 39.292C31.8697 37.1815 33.5869 35.4643 35.6974 35.4643H55.8272C57.9377 35.4643 59.6549 37.1815 59.6549 39.292C59.6549 41.4025 57.9377 43.1197 55.8272 43.1197ZM81.6474 22.1827H79.8589H11.6652H9.87819V9.98048H81.6474V22.1827Z" fill="#D9D9D9"/>
<rect x="65.4468" y="62.0125" width="32.4733" height="32.4733" rx="16.2366" fill="#96C547"/>
<path d="M89.7843 72.7064V74.4118H87.2261V76.97H85.5206V74.4118H82.9625V72.7064H85.5206V70.1482H87.2261V72.7064H89.7843ZM82.5361 78.6754C82.8755 78.6753 83.2009 78.5404 83.4407 78.3003C83.6806 78.0603 83.8153 77.7348 83.8152 77.3955C83.8151 77.0561 83.6802 76.7307 83.4401 76.4908C83.2001 76.251 82.8746 76.1163 82.5353 76.1164C82.3672 76.1164 82.2009 76.1496 82.0457 76.2139C81.8904 76.2783 81.7494 76.3726 81.6306 76.4915C81.5119 76.6103 81.4177 76.7514 81.3534 76.9066C81.2892 77.0619 81.2561 77.2283 81.2562 77.3963C81.2562 77.5644 81.2894 77.7307 81.3537 77.8859C81.4181 78.0412 81.5124 78.1822 81.6313 78.3009C81.7501 78.4197 81.8912 78.5139 82.0464 78.5782C82.2017 78.6424 82.3681 78.6755 82.5361 78.6754ZM85.5206 81.4331L85.0832 80.9471C84.9233 80.769 84.7276 80.6265 84.509 80.529C84.2904 80.4315 84.0537 80.3812 83.8144 80.3812C83.575 80.3812 83.3383 80.4315 83.1197 80.529C82.9011 80.6265 82.7054 80.769 82.5455 80.9471L81.9861 81.5704L77.8462 76.97L75.288 79.8121V74.4118H81.257V72.7064H75.288C74.8357 72.7064 74.4019 72.886 74.0821 73.2059C73.7622 73.5257 73.5826 73.9595 73.5826 74.4118V84.6445C73.5826 85.0968 73.7622 85.5306 74.0821 85.8504C74.4019 86.1702 74.8357 86.3499 75.288 86.3499H85.5206C85.973 86.3499 86.4067 86.1702 86.7266 85.8504C87.0464 85.5306 87.2261 85.0968 87.2261 84.6445V78.6754H85.5206V81.4331Z" fill="white"/>
</svg>
