<svg width="25" height="29" viewBox="0 0 25 29" fill="none" xmlns="http://www.w3.org/2000/svg">
<path d="M5.01001 22.431H15.01V24.431H5.01001V22.431Z" fill="black"/>
<path d="M7.01001 26.431H13.01V28.431H7.01001V26.431Z" fill="black"/>
<path d="M4.82498 16.571C3.88844 15.8567 3.14186 14.9231 2.65099 13.8524C2.16011 12.7817 1.93998 11.6068 2.00998 10.431C2.01263 8.31008 2.85633 6.27679 4.35605 4.77707C5.85577 3.27735 7.88906 2.43365 10.01 2.431V0.431C7.35871 0.433911 4.81686 1.48841 2.94213 3.36315C1.0674 5.23788 0.012893 7.77973 0.00998142 10.431C-0.0578174 11.8838 0.220527 13.3319 0.822085 14.656C1.42364 15.9801 2.3312 17.1424 3.46998 18.047C4.48198 18.982 5.00998 19.512 5.00998 20.431H7.00998C7.00998 18.591 5.89998 17.565 4.82498 16.571Z" fill="black"/>
<path d="M15.01 8.021L11.42 4.431L10.01 5.841L15.01 10.841L24.01 1.841L22.6 0.431L15.01 8.021Z" fill="black"/>
<path d="M17.81 12.431C17.4413 14.0736 16.5148 15.5377 15.188 16.574C14.117 17.566 13.01 18.591 13.01 20.431H15.01C15.01 19.511 15.536 18.981 16.545 18.045C18.2986 16.6429 19.475 14.6447 19.85 12.431H17.81Z" fill="black"/>
</svg>
