<svg width="15" height="17" viewBox="0 0 15 17" fill="none" xmlns="http://www.w3.org/2000/svg">
<path d="M13.2822 4.25374C13.5971 3.93887 13.7703 3.52069 13.7703 3.07586C13.7703 2.63104 13.5971 2.21286 13.2822 1.89799L11.961 0.576829C11.6461 0.261951 11.228 0.0886841 10.7831 0.0886841C10.3383 0.0886841 9.92014 0.261951 9.60609 0.575996L0.749512 9.40509V13.0828H4.42559L13.2822 4.25374ZM10.7831 1.75471L12.1051 3.07503L10.7806 4.39452L9.45949 3.0742L10.7831 1.75471ZM2.41554 11.4168V10.0965L8.27994 4.25041L9.6011 5.57157L3.73753 11.4168H2.41554ZM0.749512 14.7489H14.0777V16.4149H0.749512V14.7489Z" fill="#96C547"/>
</svg>
