<svg width="18" height="18" viewBox="0 0 18 18" fill="none" xmlns="http://www.w3.org/2000/svg">
<path d="M5.50534 9.06824L2.08052 5.64342C0.732232 7.11323 0.221304 8.5857 0.212433 8.61586L0.118408 8.89616L0.211546 9.17646C0.231061 9.23589 2.26591 15.1054 9.0366 15.1054C9.86065 15.1054 10.6111 15.0149 11.3003 14.8632L8.86452 12.4274C7.9875 12.3844 7.15783 12.0167 6.53694 11.3958C5.91604 10.7749 5.54833 9.94527 5.50534 9.06824V9.06824ZM9.0366 2.68696C7.39116 2.68696 6.04288 3.04532 4.91901 3.57221L1.63257 0.285767L0.378308 1.54003L16.3448 17.5066L17.5991 16.2523L14.6737 13.3269C17.0137 11.5945 17.8484 9.21372 17.8608 9.17646L17.9539 8.89616L17.8608 8.61586C17.8413 8.55643 15.8073 2.68696 9.0366 2.68696ZM10.7273 9.38048C10.8932 8.77996 10.7521 8.10404 10.2909 7.6419C9.82961 7.17976 9.1528 7.03961 8.55228 7.20548L7.21464 5.86784C7.76279 5.53076 8.3931 5.35093 9.0366 5.34804C10.9934 5.34804 12.5847 6.93937 12.5847 8.89616C12.5821 9.53954 12.4019 10.1697 12.064 10.7172L10.7273 9.38048V9.38048Z" fill="#8C8383"/>
</svg>
