<svg width="23" height="21" viewBox="0 0 23 21" fill="none" xmlns="http://www.w3.org/2000/svg">
<path d="M20.8695 0.782104H1.18518C0.545791 0.782104 0.0272827 1.3005 0.0272827 1.94001V7.20892C0.0272827 7.84843 0.545791 8.36682 1.18518 8.36682H1.61766V19.5548C1.61766 20.1943 2.13605 20.7127 2.77556 20.7127H19.2787C19.9182 20.7127 20.4366 20.1943 20.4366 19.5548V8.3667H20.8694C21.5088 8.3667 22.0273 7.84831 22.0273 7.2088V1.94001C22.0274 1.3005 21.5089 0.782104 20.8695 0.782104ZM13.463 11.1178H8.59146C8.08071 11.1178 7.66514 10.7022 7.66514 10.1914C7.66514 9.68069 8.08071 9.26512 8.59146 9.26512H13.463C13.9737 9.26512 14.3893 9.68069 14.3893 10.1914C14.3893 10.7022 13.9737 11.1178 13.463 11.1178ZM19.7116 6.0509H19.2788H2.77556H2.34308V3.09791H19.7116V6.0509Z" fill="#D9D9D9"/>
</svg>
