<svg width="20" height="21" viewBox="0 0 20 21" fill="none" xmlns="http://www.w3.org/2000/svg">
<path d="M15.9702 10.5546C15.9702 11.0097 15.5606 11.4192 15.1056 11.4192H4.73078C4.27574 11.4192 3.86621 11.0097 3.86621 10.5546V9.69005C3.86621 9.23501 4.27574 8.82548 4.73078 8.82548H15.1511C15.6062 8.82548 16.0157 9.23501 16.0157 9.69005V10.5546H15.9702ZM14.241 15.742C14.241 16.1971 13.8315 16.6066 13.3765 16.6066H4.73078C4.27574 16.6066 3.86621 16.1971 3.86621 15.742V14.8775C3.86621 14.4224 4.27574 14.0129 4.73078 14.0129H13.422C13.877 14.0129 14.2865 14.4224 14.2865 14.8775V15.742H14.241ZM3.86621 4.45713C3.86621 4.00209 4.27574 3.59256 4.73078 3.59256H13.422C13.877 3.59256 14.2865 4.00209 14.2865 4.45713V5.32169C14.2865 5.77673 13.877 6.18626 13.422 6.18626H4.73078C4.27574 6.18626 3.86621 5.77673 3.86621 5.32169V4.45713ZM16.8348 0.134277H3.00164C1.54552 0.134277 0.362427 1.31737 0.362427 2.72799V17.4712C0.362427 18.8818 1.54552 20.0649 2.95614 20.0649H16.8348C18.2454 20.0649 19.4285 18.8818 19.4285 17.4712V2.72799C19.474 1.31737 18.2909 0.134277 16.8348 0.134277Z" fill="#D9D9D9"/>
</svg>
