<svg width="11" height="12" viewBox="0 0 11 12" fill="none" xmlns="http://www.w3.org/2000/svg">
<path d="M5.37542 0.709106C5.55086 0.709106 5.71911 0.778799 5.84316 0.902854C5.96722 1.02691 6.03691 1.19516 6.03691 1.3706V5.33956H10.0059C10.1813 5.33956 10.3496 5.40926 10.4736 5.53331C10.5977 5.65736 10.6674 5.82562 10.6674 6.00106C10.6674 6.1765 10.5977 6.34475 10.4736 6.4688C10.3496 6.59286 10.1813 6.66255 10.0059 6.66255H6.03691V10.6315C6.03691 10.807 5.96722 10.9752 5.84316 11.0993C5.71911 11.2233 5.55086 11.293 5.37542 11.293C5.19998 11.293 5.03172 11.2233 4.90767 11.0993C4.78362 10.9752 4.71392 10.807 4.71392 10.6315V6.66255H0.744959C0.56952 6.66255 0.401267 6.59286 0.277213 6.4688C0.153159 6.34475 0.0834656 6.1765 0.0834656 6.00106C0.0834656 5.82562 0.153159 5.65736 0.277213 5.53331C0.401267 5.40926 0.56952 5.33956 0.744959 5.33956H4.71392V1.3706C4.71392 1.19516 4.78362 1.02691 4.90767 0.902854C5.03172 0.778799 5.19998 0.709106 5.37542 0.709106Z" fill="white"/>
</svg>
