<svg width="81" height="80" viewBox="0 0 81 80" fill="none" xmlns="http://www.w3.org/2000/svg">
<path d="M71.055 65.4929C75.1335 60.5858 77.9702 54.7685 79.325 48.5333C80.6798 42.298 80.5129 35.8281 78.8384 29.671C77.1639 23.5139 74.0311 17.8506 69.705 13.1603C65.379 8.46997 59.9868 4.89059 53.9848 2.72493C47.9828 0.559267 41.5475 -0.128952 35.2233 0.718488C28.899 1.56593 22.8719 3.9241 17.6518 7.59351C12.4317 11.2629 8.17216 16.1356 5.23351 21.7994C2.29486 27.4632 0.763561 33.7514 0.76915 40.1322C0.771294 49.408 4.04005 58.3867 10.0018 65.4929L9.94502 65.5412C10.1438 65.7798 10.371 65.9842 10.5755 66.22C10.8311 66.5125 11.1066 66.7879 11.3707 67.0719C12.1659 67.9353 12.9838 68.7645 13.8414 69.5427C14.1027 69.7812 14.3725 70.0028 14.6366 70.23C15.5454 71.0138 16.4797 71.7579 17.4482 72.4508C17.5731 72.536 17.6867 72.6468 17.8117 72.7348V72.7007C24.4631 77.3814 32.3979 79.8935 40.5313 79.8935C48.6646 79.8935 56.5994 77.3814 63.2508 72.7007V72.7348C63.3758 72.6468 63.4866 72.536 63.6144 72.4508C64.5799 71.755 65.5171 71.0138 66.4259 70.23C66.69 70.0028 66.9598 69.7784 67.2211 69.5427C68.0788 68.7617 68.8967 67.9353 69.6918 67.0719C69.956 66.7879 70.2286 66.5125 70.487 66.22C70.6887 65.9842 70.9187 65.7798 71.1175 65.5384L71.055 65.4929ZM40.5284 17.4126C43.056 17.4126 45.5269 18.1621 47.6285 19.5664C49.7301 20.9706 51.3681 22.9666 52.3354 25.3018C53.3027 27.637 53.5557 30.2066 53.0626 32.6856C52.5695 35.1646 51.3524 37.4417 49.5651 39.229C47.7778 41.0163 45.5007 42.2335 43.0216 42.7266C40.5426 43.2197 37.973 42.9666 35.6378 41.9993C33.3026 41.0321 31.3067 39.3941 29.9024 37.2924C28.4982 35.1908 27.7487 32.72 27.7487 30.1924C27.7487 26.803 29.0951 23.5524 31.4918 21.1557C33.8884 18.759 37.139 17.4126 40.5284 17.4126ZM17.8287 65.4929C17.878 61.764 19.3934 58.2044 22.0471 55.5842C24.7007 52.964 28.2793 51.4939 32.0086 51.492H49.0483C52.7775 51.4939 56.3561 52.964 59.0098 55.5842C61.6635 58.2044 63.1789 61.764 63.2281 65.4929C56.9997 71.1056 48.9127 74.2118 40.5284 74.2118C32.1442 74.2118 24.0572 71.1056 17.8287 65.4929Z" fill="#D9D9D9"/>
</svg>
