<svg width="23" height="23" viewBox="0 0 23 23" fill="none" xmlns="http://www.w3.org/2000/svg">
<path d="M19.9322 18.1753C21.0614 16.8167 21.8468 15.2061 22.2218 13.4798C22.5969 11.7535 22.5507 9.96223 22.0871 8.25755C21.6235 6.55287 20.7562 4.98492 19.5584 3.68635C18.3607 2.38777 16.8678 1.39677 15.2061 0.797182C13.5444 0.197592 11.7627 0.00704938 10.0117 0.241674C8.26078 0.476299 6.5921 1.12919 5.14684 2.14511C3.70159 3.16103 2.52228 4.5101 1.70868 6.07819C0.895073 7.64629 0.471113 9.38727 0.47266 11.1539C0.473254 13.722 1.37825 16.2079 3.02884 18.1753L3.01312 18.1887C3.06816 18.2547 3.13106 18.3113 3.18767 18.3766C3.25844 18.4576 3.3347 18.5338 3.40783 18.6125C3.62799 18.8515 3.85443 19.0811 4.09189 19.2965C4.16423 19.3626 4.23892 19.4239 4.31205 19.4868C4.56365 19.7038 4.82234 19.9098 5.09046 20.1017C5.12505 20.1253 5.15651 20.1559 5.1911 20.1803V20.1709C7.03264 21.4668 9.2295 22.1623 11.4813 22.1623C13.7331 22.1623 15.93 21.4668 17.7715 20.1709V20.1803C17.8061 20.1559 17.8368 20.1253 17.8722 20.1017C18.1395 19.909 18.399 19.7038 18.6506 19.4868C18.7237 19.4239 18.7984 19.3618 18.8707 19.2965C19.1082 19.0803 19.3346 18.8515 19.5548 18.6125C19.6279 18.5338 19.7034 18.4576 19.7749 18.3766C19.8308 18.3113 19.8945 18.2547 19.9495 18.1879L19.9322 18.1753ZM11.4805 4.86366C12.1803 4.86366 12.8644 5.07117 13.4463 5.45996C14.0281 5.84874 14.4816 6.40134 14.7494 7.04787C15.0172 7.6944 15.0873 8.40582 14.9508 9.09217C14.8143 9.77853 14.4773 10.409 13.9824 10.9038C13.4876 11.3986 12.8572 11.7356 12.1708 11.8722C11.4844 12.0087 10.773 11.9386 10.1265 11.6708C9.47997 11.403 8.92737 10.9495 8.53858 10.3676C8.1498 9.78578 7.94228 9.1017 7.94228 8.4019C7.94228 7.4635 8.31506 6.56353 8.97861 5.89998C9.64216 5.23643 10.5421 4.86366 11.4805 4.86366ZM5.19582 18.1753C5.20946 17.1429 5.62902 16.1574 6.36372 15.4319C7.09843 14.7065 8.0892 14.2995 9.1217 14.299H13.8394C14.8718 14.2995 15.8626 14.7065 16.5973 15.4319C17.332 16.1574 17.7516 17.1429 17.7652 18.1753C16.0408 19.7292 13.8018 20.5892 11.4805 20.5892C9.15923 20.5892 6.92025 19.7292 5.19582 18.1753Z" fill="#D9D9D9"/>
</svg>
