<svg width="102" height="102" viewBox="0 0 102 102" fill="none" xmlns="http://www.w3.org/2000/svg">
<g filter="url(#filter0_d_142_499)">
<circle cx="51.0941" cy="50.7257" r="30.901" stroke="#96C547" stroke-width="5" shape-rendering="crispEdges"/>
</g>
<path fill-rule="evenodd" clip-rule="evenodd" d="M51.0945 81.5896C51.0945 82.9703 49.9713 84.0994 48.5943 83.9975C31.3153 82.7187 17.6938 68.2944 17.6938 50.6886C17.6938 33.0829 31.3153 18.6586 48.5943 17.3798C49.9713 17.2779 51.0945 18.4069 51.0945 19.7877C51.0945 21.1684 49.9714 22.2761 48.5959 22.396C34.0808 23.6614 22.6938 35.8452 22.6938 50.6886C22.6938 65.5321 34.0808 77.7159 48.5959 78.9812C49.9714 79.1011 51.0945 80.2089 51.0945 81.5896Z" fill="#FFBA00"/>
<path d="M41.5828 51.6207H43.033V53.6685H41.5828V56.4371H39.0427V53.6685H33.7957L33.6814 52.0689L39.0164 43.6402H41.5828V51.6207ZM36.2126 51.6207H39.0427V47.1031L38.8757 47.3931L36.2126 51.6207ZM53.1052 45.064L48.157 56.4371H45.4763L50.4333 45.6968H44.0701V43.6402H53.1052V45.064ZM54.7048 46.1011C54.7048 45.316 54.9597 44.6802 55.4695 44.1939C55.9792 43.7017 56.6472 43.4556 57.4734 43.4556C58.3113 43.4556 58.9851 43.6988 59.4949 44.1851C60.0046 44.6656 60.2595 45.3189 60.2595 46.1451V46.7779C60.2595 47.5689 60.0046 48.2047 59.4949 48.6851C58.9851 49.1656 58.3171 49.4058 57.491 49.4058C56.6589 49.4058 55.9851 49.1656 55.4695 48.6851C54.9597 48.1988 54.7048 47.5455 54.7048 46.7252V46.1011ZM56.3923 46.7779C56.3923 47.1295 56.4919 47.4136 56.6912 47.6304C56.8962 47.8414 57.1628 47.9468 57.491 47.9468C57.8191 47.9468 58.0798 47.8384 58.2732 47.6216C58.4666 47.4048 58.5632 47.1148 58.5632 46.7515V46.1011C58.5632 45.7496 58.4666 45.4654 58.2732 45.2486C58.0798 45.0318 57.8132 44.9234 57.4734 44.9234C57.1511 44.9234 56.8904 45.0318 56.6912 45.2486C56.4919 45.4595 56.3923 45.7554 56.3923 46.1363V46.7779ZM60.822 53.2994C60.822 52.5084 61.0798 51.8726 61.5955 51.3922C62.1111 50.9058 62.7791 50.6627 63.5994 50.6627C64.4314 50.6627 65.1023 50.9029 65.6121 51.3834C66.1277 51.858 66.3855 52.5142 66.3855 53.3521V53.9849C66.3855 54.7701 66.1335 55.4058 65.6296 55.8922C65.1257 56.3726 64.4548 56.6129 63.6169 56.6129C62.7732 56.6129 62.0964 56.3697 61.5867 55.8834C61.0769 55.397 60.822 54.7525 60.822 53.9498V53.2994ZM62.5095 53.9849C62.5095 54.3072 62.615 54.5826 62.8259 54.8111C63.0369 55.0396 63.3005 55.1539 63.6169 55.1539C64.3318 55.1539 64.6892 54.7584 64.6892 53.9673V53.2994C64.6892 52.9478 64.5896 52.6666 64.3904 52.4556C64.1912 52.2388 63.9275 52.1304 63.5994 52.1304C63.2712 52.1304 63.0076 52.2388 62.8083 52.4556C62.6091 52.6666 62.5095 52.9566 62.5095 53.3257V53.9849ZM57.9919 55.4791L56.7527 54.8111L63.0017 44.8091L64.241 45.4771L57.9919 55.4791Z" fill="#96C547"/>
<defs>
<filter id="filter0_d_142_499" x="0.693115" y="0.324707" width="100.802" height="100.802" filterUnits="userSpaceOnUse" color-interpolation-filters="sRGB">
<feFlood flood-opacity="0" result="BackgroundImageFix"/>
<feColorMatrix in="SourceAlpha" type="matrix" values="0 0 0 0 0 0 0 0 0 0 0 0 0 0 0 0 0 0 127 0" result="hardAlpha"/>
<feOffset/>
<feGaussianBlur stdDeviation="8.5"/>
<feComposite in2="hardAlpha" operator="out"/>
<feColorMatrix type="matrix" values="0 0 0 0 0.891667 0 0 0 0 0.887951 0 0 0 0 0.887951 0 0 0 0.52 0"/>
<feBlend mode="normal" in2="BackgroundImageFix" result="effect1_dropShadow_142_499"/>
<feBlend mode="normal" in="SourceGraphic" in2="effect1_dropShadow_142_499" result="shape"/>
</filter>
</defs>
</svg>
