<svg width="18" height="18" viewBox="0 0 18 18" fill="none" xmlns="http://www.w3.org/2000/svg">
<path d="M11.0786 11.5686C9.82866 12.5672 8.24378 13.0493 6.64946 12.9159C5.05515 12.7825 3.57244 12.0437 2.50583 10.8512C1.43923 9.65872 0.86971 8.1031 0.914231 6.50384C0.958751 4.90457 1.61394 3.38305 2.74523 2.25176C3.87652 1.12047 5.39804 0.465282 6.9973 0.420762C8.59657 0.376241 10.1522 0.945764 11.3447 2.01236C12.5371 3.07897 13.276 4.56168 13.4094 6.15599C13.5428 7.75031 13.0607 9.3352 12.0621 10.5852L17.4009 15.9226C17.5315 16.0532 17.6049 16.2303 17.6049 16.415C17.6049 16.5997 17.5315 16.7768 17.4009 16.9074C17.2703 17.038 17.0932 17.1114 16.9085 17.1114C16.7238 17.1114 16.5467 17.038 16.4161 16.9074L11.08 11.5686H11.0786ZM12.0398 6.67773C12.0398 6.03837 11.9139 5.40527 11.6692 4.81458C11.4246 4.22388 11.0659 3.68717 10.6138 3.23507C10.1618 2.78298 9.62504 2.42435 9.03435 2.17968C8.44365 1.93501 7.81055 1.80908 7.1712 1.80908C6.53184 1.80908 5.89874 1.93501 5.30804 2.17968C4.71735 2.42435 4.18064 2.78298 3.72854 3.23507C3.27645 3.68717 2.91782 4.22388 2.67315 4.81458C2.42848 5.40527 2.30255 6.03837 2.30255 6.67773C2.30255 7.96897 2.81549 9.20733 3.72854 10.1204C4.64159 11.0334 5.87995 11.5464 7.1712 11.5464C8.46244 11.5464 9.7008 11.0334 10.6138 10.1204C11.5269 9.20733 12.0398 7.96897 12.0398 6.67773Z" fill="#96C547"/>
</svg>
