<svg width="5" height="17" viewBox="0 0 5 17" fill="none" xmlns="http://www.w3.org/2000/svg">
<path d="M2.82654 16.1277C2.29611 16.1277 1.7874 15.9169 1.41232 15.5419C1.03725 15.1668 0.826538 14.6581 0.826538 14.1277C0.826538 13.5972 1.03725 13.0885 1.41232 12.7134C1.7874 12.3384 2.29611 12.1277 2.82654 12.1277C3.35697 12.1277 3.86568 12.3384 4.24075 12.7134C4.61582 13.0885 4.82654 13.5972 4.82654 14.1277C4.82654 14.6581 4.61582 15.1668 4.24075 15.5419C3.86568 15.9169 3.35697 16.1277 2.82654 16.1277ZM2.82654 10.1277C2.29611 10.1277 1.7874 9.91694 1.41232 9.54187C1.03725 9.1668 0.826538 8.65809 0.826538 8.12766C0.826538 7.59722 1.03725 7.08851 1.41232 6.71344C1.7874 6.33837 2.29611 6.12766 2.82654 6.12766C3.35697 6.12766 3.86568 6.33837 4.24075 6.71344C4.61582 7.08851 4.82654 7.59722 4.82654 8.12766C4.82654 8.65809 4.61582 9.1668 4.24075 9.54187C3.86568 9.91694 3.35697 10.1277 2.82654 10.1277ZM2.82654 4.12766C2.29611 4.12766 1.7874 3.91694 1.41232 3.54187C1.03725 3.1668 0.826538 2.65809 0.826538 2.12766C0.826538 1.59722 1.03725 1.08851 1.41232 0.713441C1.7874 0.338369 2.29611 0.127655 2.82654 0.127655C3.35697 0.127655 3.86568 0.338369 4.24075 0.713441C4.61582 1.08851 4.82654 1.59722 4.82654 2.12766C4.82654 2.65809 4.61582 3.1668 4.24075 3.54187C3.86568 3.91694 3.35697 4.12766 2.82654 4.12766Z" fill="black"/>
</svg>
