<svg width="22" height="22" viewBox="0 0 22 22" fill="none" xmlns="http://www.w3.org/2000/svg">
<path d="M15.7333 2.89926V0.698188C15.7331 0.589852 15.7612 0.483712 15.8144 0.392219C15.8675 0.300725 15.9435 0.227673 16.0333 0.18163C16.1232 0.135587 16.2232 0.118464 16.3216 0.132268C16.4201 0.146073 16.5129 0.190232 16.5891 0.259568L20.8894 4.17069C20.9718 4.2457 21.031 4.34662 21.059 4.45969C21.087 4.57277 21.0823 4.69251 21.0457 4.8026C21.0091 4.91269 20.9422 5.00778 20.8543 5.07492C20.7664 5.14206 20.6616 5.17799 20.5543 5.17781H0.0770264V2.89926H15.7333ZM0.0770264 18.8491H20.952V21.1276H0.0770264V18.8491ZM0.0770264 10.8742H20.952V13.1527H0.0770264V10.8742Z" fill="white"/>
</svg>
