<svg width="10" height="10" viewBox="0 0 10 10" fill="none" xmlns="http://www.w3.org/2000/svg">
<path fill-rule="evenodd" clip-rule="evenodd" d="M0.772062 4.88664C0.772062 6.95004 2.26809 8.35591 3.9485 8.64671C3.99421 8.65464 4.03791 8.67148 4.07711 8.6963C4.11631 8.72111 4.15024 8.7534 4.17696 8.79132C4.20368 8.82925 4.22267 8.87206 4.23284 8.91733C4.24302 8.96259 4.24417 9.00941 4.23625 9.05512C4.22833 9.10083 4.21148 9.14454 4.18667 9.18373C4.16186 9.22293 4.12957 9.25686 4.09164 9.28358C4.05372 9.3103 4.0109 9.32929 3.96564 9.33946C3.92038 9.34964 3.87355 9.3508 3.82784 9.34287C1.8546 9.00123 0.0657349 7.33777 0.0657349 4.88664C0.0657349 3.84477 0.539557 3.02592 1.09269 2.40365C1.48924 1.95762 1.94272 1.59496 2.30741 1.31772H1.19843C1.10854 1.31772 1.02234 1.28201 0.958776 1.21845C0.895214 1.15489 0.859506 1.06868 0.859506 0.978791C0.859506 0.888901 0.895214 0.802694 0.958776 0.739132C1.02234 0.675571 1.10854 0.639862 1.19843 0.639862H3.23201C3.3219 0.639862 3.4081 0.675571 3.47167 0.739132C3.53523 0.802694 3.57094 0.888901 3.57094 0.978791V3.01236C3.57094 3.10225 3.53523 3.18846 3.47167 3.25202C3.4081 3.31558 3.3219 3.35129 3.23201 3.35129C3.14212 3.35129 3.05591 3.31558 2.99235 3.25202C2.92879 3.18846 2.89308 3.10225 2.89308 3.01236V1.76104L2.8924 1.76239C2.50467 2.05387 2.03152 2.4111 1.62142 2.87272C1.13675 3.41772 0.772062 4.0766 0.772062 4.88596V4.88664ZM8.3017 5.16185C8.3017 3.12014 6.83753 1.72308 5.17881 1.41126C5.13258 1.40342 5.08838 1.38645 5.04877 1.36134C5.00917 1.33623 4.97497 1.30348 4.94816 1.26501C4.92134 1.22654 4.90246 1.18312 4.89261 1.13727C4.88276 1.09143 4.88213 1.04408 4.89078 0.997992C4.89942 0.951904 4.91715 0.907998 4.94294 0.868836C4.96873 0.829674 5.00206 0.79604 5.04099 0.769896C5.07992 0.743753 5.12366 0.725623 5.16967 0.716565C5.21568 0.707507 5.26303 0.707701 5.30896 0.717138C7.25712 1.08318 9.00803 2.73715 9.00803 5.16185C9.00803 6.20372 8.53421 7.02189 7.98107 7.64484C7.58453 8.09087 7.13104 8.45353 6.76636 8.73077H7.87533C7.96522 8.73077 8.05143 8.76648 8.11499 8.83004C8.17855 8.8936 8.21426 8.97981 8.21426 9.0697C8.21426 9.15959 8.17855 9.24579 8.11499 9.30936C8.05143 9.37292 7.96522 9.40863 7.87533 9.40863H5.84176C5.75187 9.40863 5.66566 9.37292 5.6021 9.30936C5.53854 9.24579 5.50283 9.15959 5.50283 9.0697V7.03613C5.50283 6.94624 5.53854 6.86003 5.6021 6.79647C5.66566 6.7329 5.75187 6.6972 5.84176 6.6972C5.93165 6.6972 6.01785 6.7329 6.08142 6.79647C6.14498 6.86003 6.18069 6.94624 6.18069 7.03613V8.28677H6.18204C6.5691 7.99394 7.04292 7.63738 7.45235 7.17509C7.93701 6.63077 8.3017 5.97189 8.3017 5.16185Z" fill="white"/>
</svg>
