<svg width="19" height="13" viewBox="0 0 19 13" fill="none" xmlns="http://www.w3.org/2000/svg">
<path fill-rule="evenodd" clip-rule="evenodd" d="M0.421875 6.16918C0.421875 5.99676 0.490371 5.83139 0.612295 5.70947C0.73422 5.58755 0.899584 5.51905 1.07201 5.51905H16.4061L12.3142 1.42839C12.1921 1.30631 12.1235 1.14074 12.1235 0.968096C12.1235 0.795451 12.1921 0.629878 12.3142 0.5078C12.4362 0.385721 12.6018 0.317139 12.7745 0.317139C12.9471 0.317139 13.1127 0.385721 13.2348 0.5078L18.4358 5.70889C18.4964 5.76928 18.5444 5.84102 18.5772 5.92001C18.61 5.99899 18.6268 6.08367 18.6268 6.16918C18.6268 6.2547 18.61 6.33937 18.5772 6.41836C18.5444 6.49734 18.4964 6.56909 18.4358 6.62948L13.2348 11.8306C13.1127 11.9526 12.9471 12.0212 12.7745 12.0212C12.6018 12.0212 12.4362 11.9526 12.3142 11.8306C12.1921 11.7085 12.1235 11.5429 12.1235 11.3703C12.1235 11.1976 12.1921 11.0321 12.3142 10.91L16.4061 6.81932H1.07201C0.899584 6.81932 0.73422 6.75082 0.612295 6.6289C0.490371 6.50698 0.421875 6.34161 0.421875 6.16918Z" fill="white"/>
</svg>
